HIERARCHY
ROOT Hips
{
	OFFSET -0.179506 -22.333345 2.821913
	CHANNELS 6 Xposition Yposition Zposition Zrotation Yrotation Xrotation 
	JOINT LeftUpLeg
	{
		OFFSET 6.951974 -9.140623 -0.681533
		CHANNELS 3 Zrotation Yrotation Xrotation
		JOINT LeftLeg
		{
			OFFSET 3.427654 -37.519855 -0.449580
			CHANNELS 3 Zrotation Yrotation Xrotation
			JOINT LeftFoot
			{
				OFFSET -1.359570 -39.796059 -4.369333
				CHANNELS 3 Zrotation Yrotation Xrotation
				JOINT LeftToe
				{
					OFFSET 2.635814 -5.579078 11.928840
					CHANNELS 3 Zrotation Yrotation Xrotation
					End Site
					{
						OFFSET 0.000000 0.000000 0.000000
					}
				}
			}
		}
	}
	JOINT RightUpLeg
	{
		OFFSET -6.767048 -9.052170 -0.431982
		CHANNELS 3 Zrotation Yrotation Xrotation
		JOINT RightLeg
		{
			OFFSET -3.829005 -38.256897 -0.885003
			CHANNELS 3 Zrotation Yrotation Xrotation
			JOINT RightFoot
			{
				OFFSET 1.577377 -39.841461 -4.231180
				CHANNELS 3 Zrotation Yrotation Xrotation
				JOINT RightToe
				{
					OFFSET -2.537174 -4.814398 12.334795
					CHANNELS 3 Zrotation Yrotation Xrotation
					End Site
					{
						OFFSET 0.000000 0.000000 0.000000
					}
				}
			}
		}
	}
	JOINT Spine
	{
		OFFSET -0.253288 10.896323 -2.669631
		CHANNELS 3 Zrotation Yrotation Xrotation
		JOINT Spine1
		{
			OFFSET 0.548704 13.518043 0.109247
			CHANNELS 3 Zrotation Yrotation Xrotation
			JOINT Spine2
			{
				OFFSET 0.145701 5.292222 2.542457
				CHANNELS 3 Zrotation Yrotation Xrotation
				JOINT Neck
				{
					OFFSET -0.277840 21.387037 -4.285703
					CHANNELS 3 Zrotation Yrotation Xrotation
					JOINT Head
					{
						OFFSET 0.515184 6.496960 5.134897
						CHANNELS 3 Zrotation Yrotation Xrotation
						End Site
						{
							OFFSET 0.000000 0.000000 0.000000
						}
					}
				}
				JOINT LeftShoulder
				{
					OFFSET 7.884473 12.174932 -3.408961
					CHANNELS 3 Zrotation Yrotation Xrotation
					JOINT LeftArm
					{
						OFFSET 9.097692 3.046888 -0.886815
						CHANNELS 3 Zrotation Yrotation Xrotation
						JOINT LeftForeArm
						{
							OFFSET 25.961220 -1.277207 -2.745643
							CHANNELS 3 Zrotation Yrotation Xrotation
							JOINT LeftHand
							{
								OFFSET 24.923361 0.898606 -0.117091
								CHANNELS 3 Zrotation Yrotation Xrotation
								End Site
								{
									OFFSET 0.000000 0.000000 0.000000
								}
							}
						}
					}
				}
				JOINT RightShoulder
				{
					OFFSET -8.175920 11.883285 -3.861528
					CHANNELS 3 Zrotation Yrotation Xrotation
					JOINT RightArm
					{
						OFFSET -9.601238 3.255117 -0.914307
						CHANNELS 3 Zrotation Yrotation Xrotation
						JOINT RightForeArm
						{
							OFFSET -25.374195 -1.332924 -2.140099
							CHANNELS 3 Zrotation Yrotation Xrotation
							JOINT RightHand
							{
								OFFSET -25.529810 0.777228 -0.555919
								CHANNELS 3 Zrotation Yrotation Xrotation
								End Site
								{
									OFFSET 0.000000 0.000000 0.000000
								}
							}
						}
					}
				}
			}
		}
	}
}
MOTION
Frames: 12
Frame Time: 0.033333
154.894089 -151.762482 76.532898 157.401381 -0.058295 89.563362 36.460553 21.247010 -36.650910 -8.721477 8.055411 66.650427 -1.978387 -3.177411 -29.314768 nan nan nan -27.693894 -12.913374 -32.441639 7.318191 1.842243 65.640578 18.389660 18.565512 -21.990340 nan nan nan 2.838459 0.092398 47.116772 1.753542 -0.831063 -1.397425 3.117045 1.860571 -6.953899 -6.109207 0.917639 -25.360919 4.159006 -1.087828 -16.068958 -24.328825 -8.914122 1.757262 -36.513615 3.982083 9.093561 -150.246940 -71.026987 171.120407 7.267049 -17.346286 -25.399004 24.481664 21.107130 2.289221 35.542254 12.863588 10.493075 60.767506 73.370941 71.555514 11.386441 9.045574 4.619264 
154.074402 -150.986755 76.600838 157.999803 0.262885 89.448708 37.135209 21.142865 -36.612938 -9.162265 7.809022 65.493713 -2.633756 -3.714636 -28.501556 nan nan nan -28.109453 -12.818283 -30.973598 7.178976 2.027373 64.306699 18.664534 18.027069 -21.938174 nan nan nan 2.730624 0.610933 46.540337 1.963820 -0.898141 -1.222208 3.129500 2.080431 -6.773353 -5.872745 0.891345 -25.193402 4.569044 -1.690278 -15.813098 -23.370734 -8.935117 1.573236 -35.359794 3.548598 9.049973 -149.573083 -70.657243 169.811846 6.950563 -17.997852 -26.880078 24.323145 21.316127 2.335841 36.024797 12.453682 10.942912 60.324098 74.322705 71.203723 11.832882 8.971740 4.298302 
153.217209 -150.199051 76.692238 158.777005 0.490229 89.467643 37.483977 20.875289 -36.805194 -9.752323 7.640172 64.403446 -3.638856 -4.342380 -27.750476 nan nan nan -28.585065 -12.680274 -29.455134 6.875344 2.170339 62.795412 19.081664 17.541601 -21.654746 nan nan nan 2.572859 1.102943 45.507262 2.187127 -1.017869 -0.844298 3.137140 2.211445 -6.401018 -5.632040 0.931081 -25.030707 4.994653 -2.452992 -15.786628 -22.444434 -9.236917 1.409226 -34.006147 3.000262 9.155827 -149.824662 -70.334870 169.675135 6.697573 -18.393364 -27.327755 24.121937 21.277803 2.051357 36.560667 12.198993 11.293109 59.800036 74.880428 70.788751 12.471249 8.666374 4.295695 
152.327042 -149.370956 76.851547 159.567216 0.708054 89.417578 37.579931 20.633127 -36.938712 -10.440743 7.426295 63.404847 -4.694046 -4.866074 -26.940662 nan nan nan -28.911219 -12.647285 -27.788323 6.507751 2.599787 61.113401 19.626700 16.940325 -21.254746 nan nan nan 2.366989 1.706079 44.682607 2.436580 -1.173790 -0.609859 3.254642 2.311674 -6.046579 -5.259941 0.931929 -25.114164 5.356749 -3.142716 -15.515964 -21.530752 -9.660783 1.148867 -32.572525 2.277470 9.428836 -150.434355 -69.916647 169.505883 6.475085 -18.515778 -28.260241 23.798754 21.154283 1.530498 37.265375 11.801090 11.866899 59.142064 75.536568 69.990362 12.951518 8.377966 4.471672 
151.414764 -148.507217 77.076241 160.364382 0.918321 89.415521 37.414290 20.381681 -37.144837 -11.070525 7.257372 62.567982 -5.597340 -5.421198 -25.913927 nan nan nan -29.144297 -12.533639 -26.069453 5.919342 3.115330 59.241044 20.237575 16.323949 -20.733693 nan nan nan 2.110555 2.408108 44.216691 2.707965 -1.357387 -0.974633 3.439908 2.345424 -5.717468 -4.717215 0.872985 -25.091484 5.721146 -3.780387 -14.927082 -20.624207 -10.051035 0.990978 -31.175725 1.470898 9.755751 -151.387654 -69.448279 169.854940 6.385533 -18.759505 -29.086864 23.530632 20.997367 1.068532 38.109827 11.160556 12.617177 58.288046 76.365328 69.091693 13.080015 8.432365 4.443731 
150.441101 -147.592621 77.347565 161.322394 1.091636 89.467848 36.947440 19.964202 -37.518046 -11.759226 7.182618 61.958555 -6.273635 -6.011980 -25.049634 nan nan nan -29.419711 -12.299865 -24.132706 5.300108 3.724693 57.079988 20.700257 15.567923 -20.184433 nan nan nan 1.955916 3.031539 43.576758 2.994225 -1.731271 -1.456289 3.576694 2.307803 -5.206719 -4.238624 0.639151 -24.690200 6.292759 -4.157111 -14.615181 -19.835739 -10.643004 0.939131 -29.739450 0.733475 10.002476 -152.476167 -68.928342 170.830742 7.197075 -18.832240 -29.480319 23.386589 20.963438 0.897725 38.771392 10.315417 13.027840 58.274474 77.377015 69.023286 13.372249 8.558641 3.388541 
149.389465 -146.619553 77.660393 162.344807 1.171760 89.555209 36.109840 19.334462 -37.958020 -12.356015 7.261145 61.594163 -6.621851 -6.159331 -24.349820 nan nan nan -29.726823 -11.989022 -22.071717 4.630410 4.550460 54.646789 21.312982 14.686162 -19.398495 nan nan nan 1.750653 3.670146 42.731015 3.287535 -2.148177 -1.783609 3.766736 2.209225 -4.601461 -3.757709 0.274673 -24.322752 6.846831 -4.279915 -14.462726 -19.159586 -11.349148 0.881171 -28.312281 -0.123386 10.263509 -153.863765 -68.431299 171.953387 8.620877 -18.589196 -29.261189 23.114964 20.838710 0.538600 39.433330 9.394855 13.431001 58.994476 78.463790 69.498167 13.719815 8.382475 2.138627 
148.334869 -145.636261 78.067123 163.253819 1.284246 89.767807 34.983104 18.904252 -38.359759 -12.558875 7.405161 61.289816 -6.760573 -6.054927 -23.600530 nan nan nan -29.794360 -11.522218 -20.170650 3.633240 5.297457 52.101100 22.212343 13.679391 -18.288461 nan nan nan 1.328608 4.459589 41.793978 3.659444 -2.398190 -1.819597 4.139065 2.084604 -4.397146 -3.204768 -0.271585 -23.845605 7.285827 -4.425339 -14.321740 -18.440512 -12.119415 0.870414 -27.146901 -1.031278 10.406681 -155.356658 -68.148167 173.288935 9.643712 -18.575280 -27.720653 22.716619 20.710167 0.111686 40.191029 8.337973 13.855169 59.636270 79.625291 69.921944 14.184403 8.222829 1.447180 
147.259201 -144.656204 78.566864 164.050291 1.640118 90.082050 33.794801 18.857194 -38.785907 -12.319269 7.559587 61.174640 -6.310570 -6.151859 -22.799667 nan nan nan -29.402645 -10.874590 -18.423940 2.253873 5.757157 49.449824 23.197450 12.429227 -16.836089 nan nan nan 0.925426 5.173998 40.910042 4.076814 -2.459878 -1.924744 4.572862 2.014394 -4.418938 -2.695912 -0.830778 -23.130461 7.716420 -4.484948 -14.163510 -17.575204 -12.859294 0.883772 -26.305820 -2.098801 10.498288 -156.539051 -67.985598 174.216391 9.424408 -18.846890 -26.819518 22.260583 20.553288 -0.116925 40.986659 7.259646 14.182722 59.921489 80.900072 70.138982 15.147148 8.501374 0.622548 
146.087097 -143.612671 79.113617 164.886141 2.316906 90.312107 32.627090 18.953305 -39.214620 -12.029934 7.325080 61.430621 -5.130077 -6.556665 -22.318119 nan nan nan -28.698074 -10.324396 -16.555731 0.854519 6.068048 46.695736 24.314912 11.004521 -14.869594 nan nan nan 0.915038 5.448093 40.350451 4.427824 -2.545774 -2.581227 4.856723 2.074510 -4.239698 -2.303841 -1.357075 -22.313490 8.220375 -4.298062 -13.846196 -16.760890 -13.390279 0.765451 -25.565170 -3.252939 10.518056 -157.206925 -67.709245 174.584574 8.331612 -19.013589 -27.050741 21.880330 20.299844 -0.249255 41.673896 6.244676 14.411480 61.140789 81.972920 71.414780 16.462152 8.750557 -0.353926 
144.853210 -142.406494 79.638916 165.822969 2.972498 90.570533 31.207005 19.067196 -39.683125 -11.515063 6.799624 62.046640 -3.371984 -7.087447 -22.858604 nan nan nan -28.086884 -10.209968 -14.564933 -0.452172 6.580279 43.833969 25.549458 9.644275 -12.462769 nan nan nan 0.927852 5.448793 39.581901 4.803264 -2.775145 -3.440092 5.062642 2.236528 -3.860751 -1.991539 -2.124120 -20.968424 8.836622 -3.791643 -13.771804 -16.016078 -13.599113 0.766286 -25.094190 -4.504346 10.284216 -157.035109 -67.358352 174.271692 7.386501 -18.522049 -27.057620 21.604762 19.768086 -0.339872 42.250329 5.287920 14.672074 63.717001 82.679064 73.998936 17.534894 8.754108 -0.963035 
143.533112 -141.156891 80.154175 167.212761 3.443616 91.104408 29.488739 18.590040 -40.642441 -10.690652 6.539247 62.790839 -1.439441 -6.826630 -24.160940 nan nan nan -27.812470 -10.359575 -12.498148 -1.497698 6.923642 40.856675 26.506658 7.999043 -9.902421 nan nan nan 0.851525 5.489165 38.032492 5.384940 -3.299654 -3.734666 5.395259 2.154187 -3.509601 -1.696691 -2.914310 -19.432420 9.386758 -3.275991 -13.861125 -15.277177 -13.762926 1.009552 -24.819334 -5.870767 9.852842 -156.445207 -67.024638 173.453547 7.206240 -17.770730 -27.371803 21.304693 19.012333 -0.285100 42.523972 4.623995 14.904720 67.573427 83.259463 77.860989 17.842550 8.737069 -1.543624 
